<svg width="30" height="30" viewBox="0 0 30 30" fill="none" xmlns="http://www.w3.org/2000/svg">
<path d="M29.9023 10.9313C29.9023 7.09626 26.7834 3.97626 22.9498 3.97626C22.7832 3.97626 22.615 3.98252 22.446 3.99515C20.7964 1.51485 18.0015 0 15 0C11.9986 0 9.20373 1.51515 7.55403 3.99515C7.38504 3.98252 7.21686 3.97626 7.05029 3.97626C3.21656 3.97626 0.0976715 7.09626 0.0976715 10.9313C0.0976715 14.43 2.69403 17.3321 6.0604 17.8143V27.4262C6.0604 28.8455 7.21494 30 8.63413 30H21.3658C22.7851 30 23.9396 28.8454 23.9396 27.4262V17.8143C27.306 17.3321 29.9023 14.4299 29.9023 10.9313ZM21.3658 28.0201H8.63423C8.31242 28.0201 8.04029 27.7481 8.04029 27.4261V17.8153C9.01019 17.6779 9.931 17.3383 10.7616 16.8102C12.0356 17.4993 13.4846 17.8861 15 17.8861C16.5153 17.8861 17.9642 17.4993 19.2383 16.8103C20.0691 17.3383 20.99 17.6779 21.9598 17.8153V27.4261C21.9598 27.7481 21.6878 28.0201 21.3658 28.0201ZM22.9498 15.9062C22.2834 15.9062 21.6393 15.776 21.0407 15.5258C22.2454 14.4213 23.1561 12.9858 23.6134 11.336C23.7594 10.8091 23.4507 10.2635 22.9238 10.1175C22.3969 9.97151 21.8515 10.2803 21.7053 10.8071C20.8734 13.8094 18.116 15.9062 15 15.9062C11.8839 15.9062 9.12666 13.8094 8.29464 10.8071C8.14868 10.2802 7.60343 9.97151 7.07615 10.1175C6.54928 10.2634 6.2406 10.8091 6.38656 11.336C6.84373 12.9858 7.75454 14.4214 8.95928 15.5258C8.3607 15.776 7.71656 15.9062 7.05029 15.9062C4.30828 15.9062 2.07757 13.6744 2.07757 10.9313C2.07757 8.18808 4.30838 5.95616 7.05029 5.95616C7.32747 5.95616 7.61282 5.98101 7.89848 6.0299C8.3108 6.1002 8.72373 5.90394 8.92878 5.53889C10.1616 3.34364 12.488 1.9799 14.9999 1.9799C17.5118 1.9799 19.8382 3.34374 21.0712 5.53899C21.2761 5.90404 21.6889 6.1003 22.1015 6.0299C22.3872 5.98101 22.6725 5.95616 22.9496 5.95616C25.6915 5.95616 27.9222 8.18808 27.9222 10.9313C27.9225 13.6744 25.6917 15.9062 22.9498 15.9062Z" fill="#E84317"/>
</svg>
