<svg width="137" height="143" viewBox="0 0 137 143" fill="none" xmlns="http://www.w3.org/2000/svg">
<g clip-path="url(#clip0_2_127)">
<path d="M31.103 49.6704L25.9101 53.0763L79.9913 135.533L85.1842 132.127L31.103 49.6704Z" fill="#E6E6E6"/>
<path d="M18.7401 18.6397L30.7548 36.9583C30.9875 37.3131 31.0697 37.7457 30.9834 38.1611C30.897 38.5764 30.6493 38.9405 30.2945 39.1731C29.9398 39.4058 29.5071 39.488 29.0918 39.4017C28.6764 39.3154 28.3123 39.0676 28.0797 38.7129L14.2674 17.6534C12.3925 17.4968 10.5081 17.8063 8.78183 18.5543L23.8309 41.4995C24.0634 41.8542 24.1455 42.2868 24.0592 42.7021C23.9728 43.1173 23.725 43.4813 23.3704 43.7139C23.0157 43.9465 22.5832 44.0288 22.1679 43.9425C21.7526 43.8563 21.3885 43.6086 21.1558 43.254L6.10669 20.3088C4.73284 21.5941 3.69815 23.1992 3.09476 24.9812L16.9071 46.0407C17.1396 46.3954 17.2217 46.828 17.1353 47.2432C17.049 47.6585 16.8012 48.0225 16.4465 48.2551C16.0918 48.4877 15.6593 48.5699 15.244 48.4837C14.8287 48.3975 14.4647 48.1498 14.2319 47.7952L2.21728 29.4766C1.90869 34.5843 3.574 40.6382 7.22367 46.2028C14.0067 56.5448 25.0712 61.2783 31.9369 56.7753C38.8027 52.2722 38.8697 40.2379 32.0866 29.8959C28.437 24.3313 23.5478 20.3917 18.7401 18.6397Z" fill="#E6E6E6"/>
<path d="M54.386 38.3901H48.1758V137H54.386V38.3901Z" fill="#E6E6E6"/>
<path d="M51.1868 44.7885C59.3975 44.7885 66.0536 34.7622 66.0536 22.3942C66.0536 10.0262 59.3975 0 51.1868 0C42.9761 0 36.3201 10.0262 36.3201 22.3942C36.3201 34.7622 42.9761 44.7885 51.1868 44.7885Z" fill="#E6E6E6"/>
<path d="M68.5 142.059C106.332 142.059 137 140.3 137 138.129C137 135.959 106.332 134.199 68.5 134.199C30.6685 134.199 0 135.959 0 138.129C0 140.3 30.6685 142.059 68.5 142.059Z" fill="#E6E6E6"/>
<path d="M109.011 138.071C83.3395 133.444 57.0479 133.444 31.3768 138.071C30.969 138.145 30.55 138.129 30.1493 138.023C29.7486 137.917 29.376 137.725 29.0577 137.459C28.7395 137.194 28.4834 136.862 28.3075 136.487C28.1317 136.111 28.0403 135.702 28.0398 135.288V100.115H112.348V135.288C112.347 135.702 112.256 136.111 112.08 136.487C111.904 136.862 111.648 137.194 111.33 137.459C111.011 137.725 110.639 137.917 110.238 138.023C109.837 138.129 109.418 138.145 109.011 138.071Z" fill="#F8E46C"/>
<path d="M104.632 74.1457C102.685 74.1439 100.752 74.4674 98.9119 75.1028C96.2281 69.2817 91.9396 64.3469 86.5496 60.8774C81.1597 57.408 74.892 55.548 68.482 55.5156C62.0721 55.4832 55.7859 57.2798 50.3612 60.6946C44.9365 64.1094 40.5983 69.0006 37.8558 74.7943C35.1553 74.0368 32.3123 73.9393 29.5662 74.5102C26.8202 75.081 24.2516 76.3034 22.0767 78.0745C19.9019 79.8455 18.1845 82.1133 17.0693 84.6868C15.954 87.2603 15.4736 90.0641 15.6685 92.8621C15.8633 95.66 16.7277 98.3702 18.1889 100.764C19.6501 103.158 21.6652 105.166 24.0646 106.619C26.4639 108.071 29.1772 108.926 31.9759 109.11C34.7745 109.295 37.5766 108.805 40.146 107.68C43.2342 112.386 47.4523 116.243 52.415 118.899C57.3776 121.555 62.9267 122.926 68.5553 122.885C74.1839 122.845 79.7127 121.395 84.6366 118.667C89.5605 115.94 93.7227 112.023 96.7429 107.273C99.1024 108.464 101.701 109.105 104.344 109.149C106.987 109.192 109.605 108.636 112.002 107.523C114.4 106.409 116.514 104.768 118.186 102.721C119.858 100.674 121.045 98.2744 121.657 95.7031C122.27 93.1318 122.292 90.4552 121.722 87.8742C121.152 85.2932 120.004 82.8747 118.366 80.8004C116.728 78.7261 114.641 77.0498 112.263 75.8972C109.884 74.7447 107.275 74.1458 104.632 74.1457Z" fill="#F8E46C"/>
<path d="M34.8146 89.2006H34.4382C34.4253 84.1897 35.5344 79.2394 37.6839 74.7129L38.024 74.8741C35.8984 79.3502 34.8018 84.2454 34.8146 89.2006Z" fill="#3F3D56"/>
<path d="M102.185 89.2006H101.809C101.821 84.3596 100.774 79.5746 98.7427 75.1805L99.0845 75.0228C101.139 79.4663 102.197 84.3052 102.185 89.2006Z" fill="#3F3D56"/>
<path d="M28.0852 116.482L27.9945 116.117C28.1007 116.091 38.797 113.463 54.4723 112.16C68.9403 110.957 90.7333 110.667 112.393 116.117L112.301 116.482C90.6946 111.045 68.9491 111.334 54.5115 112.535C38.8642 113.835 28.1912 116.456 28.0852 116.482Z" fill="#3F3D56"/>
<path d="M28.0852 121.563L27.9945 121.198C28.1007 121.172 38.797 118.545 54.4723 117.241C68.9403 116.038 90.7333 115.748 112.393 121.198L112.301 121.563C90.6946 116.126 68.9491 116.416 54.5115 117.616C38.8642 118.916 28.1912 121.537 28.0852 121.563Z" fill="#3F3D56"/>
<path d="M28.0852 126.644L27.9945 126.279C28.1007 126.253 38.797 123.626 54.4723 122.322C68.9403 121.119 90.7333 120.829 112.393 126.279L112.301 126.644C90.6946 121.207 68.9491 121.497 54.5115 122.697C38.8642 123.997 28.1912 126.618 28.0852 126.644Z" fill="#3F3D56"/>
<path d="M97.3428 99.0156L92.7829 97.4653L97.1604 75.1221L94.1509 74.8485C91.2163 77.1001 87.3085 77.9828 82.2953 77.3108L90.3206 89.44L86.2285 92.3286L73.1744 76.6704C72.586 75.9646 72.2637 75.0749 72.2637 74.156C72.2637 73.3041 72.5408 72.4753 73.053 71.7947C73.5653 71.1141 74.285 70.6185 75.1036 70.3827L89.0439 66.3672L105.368 68.1912C107.836 71.9538 107.933 74.5706 104.176 75.3255L97.3428 99.0156Z" fill="#2F2E41"/>
<path d="M92.6758 107.708C92.2044 107.678 91.7468 107.537 91.3399 107.297C90.9331 107.057 90.5886 106.725 90.3344 106.327C90.0802 105.929 89.9234 105.476 89.8769 105.006C89.8303 104.536 89.8953 104.062 90.0665 103.622L92.3334 97.7926C93.4848 95.6113 95.0652 95.8844 96.9313 97.7926L97.8433 100.468C97.9183 100.688 97.9481 100.921 97.9308 101.153C97.9135 101.385 97.8495 101.611 97.7426 101.818L95.533 106.09C95.2651 106.608 94.8524 107.037 94.345 107.324C93.8376 107.611 93.2576 107.744 92.6758 107.708Z" fill="#2F2E41"/>
<path d="M86.7828 100.074C86.3114 100.044 85.8538 99.9038 85.4469 99.6639C85.0401 99.424 84.6956 99.0915 84.4414 98.6935C84.1872 98.2954 84.0304 97.843 83.9839 97.373C83.9373 96.903 84.0023 96.4287 84.1735 95.9885L86.4404 90.1593C87.5918 87.978 89.1722 88.251 91.0383 90.1593L91.9502 92.8344C92.0253 93.0547 92.0551 93.2878 92.0378 93.5199C92.0205 93.752 91.9565 93.9782 91.8496 94.1849L89.64 98.4568C89.3721 98.9746 88.9593 99.4033 88.452 99.6905C87.9446 99.9777 87.3646 100.111 86.7828 100.074Z" fill="#2F2E41"/>
<path d="M89.6823 45.0272C92.5028 45.0272 94.7893 42.7407 94.7893 39.9202C94.7893 37.0997 92.5028 34.8132 89.6823 34.8132C86.8618 34.8132 84.5753 37.0997 84.5753 39.9202C84.5753 42.7407 86.8618 45.0272 89.6823 45.0272Z" fill="#FFB9B9"/>
<path d="M97.6165 47.1248L90.5943 50.7726L89.1351 44.2064L93.9685 41.1969L97.6165 47.1248Z" fill="#FFB9B9"/>
<path d="M106.098 69.1032C99.0908 66.9868 92.7331 65.8902 88.1319 67.5528C89.7179 63.0913 86.7907 56.2783 83.5721 49.3135C84.9608 47.4981 87.1751 46.7949 89.6823 46.4864C92.4255 48.4782 94.3383 47.1998 95.7925 44.1153C98.9641 43.9879 102.021 45.1111 105.003 47.0335C102.672 54.5019 103.091 61.8562 106.098 69.1032Z" fill="#3F3D56"/>
<path d="M88.0407 68.6472C86.9343 69.2993 85.9131 70.3979 84.9401 71.7478C83.2956 70.7412 81.8485 69.5952 80.7085 68.232C79.9105 67.2655 79.3664 66.1151 79.1255 64.8851C78.8846 63.6551 78.9546 62.3844 79.329 61.1883L82.4455 51.0598C82.7044 50.2185 83.2072 49.4731 83.8903 48.9181L84.3017 48.5839L88.4055 56.3356L84.3017 63.9961C84.8221 65.3915 86.3557 67.0031 88.0407 68.6472Z" fill="#3F3D56"/>
<path d="M89.4533 76.3695C89.0812 76.5391 88.6748 76.6198 88.2662 76.6053C87.8575 76.5907 87.4579 76.4812 87.0988 76.2856C86.7398 76.0899 86.4312 75.8134 86.1975 75.4778C85.9638 75.1423 85.8114 74.757 85.7523 74.3524L85.074 69.709L87.4451 68.4322L90.4544 72.3716C90.6948 72.6863 90.8612 73.0511 90.9412 73.4389C91.0212 73.8267 91.0128 74.2275 90.9166 74.6117C90.8204 74.9958 90.6389 75.3533 90.3856 75.6576C90.1323 75.9619 89.8136 76.2053 89.4533 76.3695Z" fill="#FFB9B9"/>
<path d="M94.8349 39.6967L93.9629 39.7226L91.5441 36.2963C88.4448 36.6167 85.9051 37.9632 83.756 40.0258L83.5381 38.5731C83.3303 37.1877 83.6612 35.7754 84.4629 34.6266C85.2646 33.4778 86.4761 32.6799 87.8481 32.397H87.8481C88.5688 32.2484 89.312 32.2465 90.0334 32.3916C90.7547 32.5366 91.4395 32.8255 92.0467 33.241C92.654 33.6566 93.1713 34.1902 93.5677 34.8101C93.9642 35.43 94.2316 36.1234 94.3541 36.849L94.8349 39.6967Z" fill="#2F2E41"/>
<path d="M85.0281 71.7497C84.8585 71.3776 84.7778 70.9712 84.7923 70.5626C84.8069 70.1539 84.9164 69.7543 85.112 69.3953C85.3077 69.0362 85.5842 68.7276 85.9198 68.4939C86.2553 68.2602 86.6406 68.1078 87.0452 68.0487L91.6886 67.3704L92.9654 69.7415L89.026 72.7508C88.7113 72.9912 88.3465 73.1575 87.9587 73.2376C87.5709 73.3176 87.1701 73.3092 86.7859 73.213C86.4018 73.1168 86.0443 72.9353 85.74 72.682C85.4357 72.4286 85.1923 72.11 85.0281 71.7497Z" fill="#FFB9B9"/>
<path d="M106.982 67.5259C102.565 67.869 97.7412 69.2466 92.6918 71.2007C92.6291 69.7017 92.0855 68.2628 91.1414 67.0968C95.7276 65.8889 99.8891 64.4713 102.45 62.2634L100.899 50.5902L104.274 46.7599L104.856 47.0636C105.339 47.3148 105.764 47.6648 106.104 48.0909C106.443 48.517 106.689 49.0097 106.826 49.537C108.251 55.0789 108.883 60.3888 108.448 65.3857C108.505 65.8595 108.387 66.3375 108.117 66.7311C107.848 67.1247 107.444 67.4071 106.982 67.5259Z" fill="#3F3D56"/>
<path d="M18.0445 137.021C13.9359 139.591 9.82734 139.59 5.71876 137.018C5.5887 136.938 5.48307 136.824 5.41335 136.688C5.34364 136.552 5.3125 136.399 5.32333 136.247L6.60534 119.581H16.9745L18.4392 136.241C18.4518 136.395 18.4216 136.549 18.3519 136.687C18.2823 136.825 18.1759 136.94 18.0445 137.021Z" fill="#3F3D56"/>
<path d="M11.7421 121.655C14.6319 121.655 16.9745 120.811 16.9745 119.769C16.9745 118.728 14.6319 117.884 11.7421 117.884C8.85232 117.884 6.50969 118.728 6.50969 119.769C6.50969 120.811 8.85232 121.655 11.7421 121.655Z" fill="#3F3D56"/>
<path d="M15.8433 119.133C13.1168 121.051 10.4774 121.051 7.92505 119.133V116.116H15.8433V119.133Z" fill="#F8E46C"/>
<path d="M11.8842 117.625C14.0708 117.625 15.8433 116.95 15.8433 116.117C15.8433 115.284 14.0708 114.608 11.8842 114.608C9.69762 114.608 7.92505 115.284 7.92505 116.117C7.92505 116.95 9.69762 117.625 11.8842 117.625Z" fill="#F8E46C"/>
<path d="M12.0727 116.116C12.281 116.116 12.4498 116.032 12.4498 115.928C12.4498 115.824 12.281 115.739 12.0727 115.739C11.8645 115.739 11.6957 115.824 11.6957 115.928C11.6957 116.032 11.8645 116.116 12.0727 116.116Z" fill="#E6E6E6"/>
<path d="M13.8532 116.116C14.0614 116.116 14.2302 116.032 14.2302 115.928C14.2302 115.824 14.0614 115.739 13.8532 115.739C13.6449 115.739 13.4761 115.824 13.4761 115.928C13.4761 116.032 13.6449 116.116 13.8532 116.116Z" fill="#E6E6E6"/>
<path d="M12.963 116.562C13.1712 116.562 13.34 116.477 13.34 116.373C13.34 116.269 13.1712 116.185 12.963 116.185C12.7547 116.185 12.5859 116.269 12.5859 116.373C12.5859 116.477 12.7547 116.562 12.963 116.562Z" fill="#E6E6E6"/>
<path d="M9.40204 116.562C9.61029 116.562 9.7791 116.477 9.7791 116.373C9.7791 116.269 9.61029 116.185 9.40204 116.185C9.1938 116.185 9.02498 116.269 9.02498 116.373C9.02498 116.477 9.1938 116.562 9.40204 116.562Z" fill="#E6E6E6"/>
<path d="M10.2923 116.116C10.5005 116.116 10.6693 116.032 10.6693 115.928C10.6693 115.824 10.5005 115.739 10.2923 115.739C10.084 115.739 9.91521 115.824 9.91521 115.928C9.91521 116.032 10.084 116.116 10.2923 116.116Z" fill="#E6E6E6"/>
<path d="M11.1825 116.784C11.3907 116.784 11.5596 116.7 11.5596 116.596C11.5596 116.492 11.3907 116.407 11.1825 116.407C10.9743 116.407 10.8054 116.492 10.8054 116.596C10.8054 116.7 10.9743 116.784 11.1825 116.784Z" fill="#E6E6E6"/>
<path d="M131.897 137.021C127.789 139.591 123.68 139.59 119.572 137.018C119.442 136.938 119.336 136.824 119.266 136.688C119.197 136.552 119.166 136.399 119.176 136.247L120.458 119.581H130.828L132.292 136.241C132.305 136.395 132.275 136.549 132.205 136.687C132.135 136.825 132.029 136.94 131.897 137.021Z" fill="#3F3D56"/>
<path d="M125.595 121.655C128.485 121.655 130.828 120.811 130.828 119.769C130.828 118.728 128.485 117.884 125.595 117.884C122.705 117.884 120.363 118.728 120.363 119.769C120.363 120.811 122.705 121.655 125.595 121.655Z" fill="#3F3D56"/>
<path d="M129.696 119.133C126.97 121.051 124.33 121.051 121.778 119.133V116.116H129.696V119.133Z" fill="#F8E46C"/>
<path d="M125.737 117.625C127.924 117.625 129.696 116.95 129.696 116.117C129.696 115.284 127.924 114.608 125.737 114.608C123.551 114.608 121.778 115.284 121.778 116.117C121.778 116.95 123.551 117.625 125.737 117.625Z" fill="#F8E46C"/>
<path d="M125.926 116.116C126.134 116.116 126.303 116.032 126.303 115.928C126.303 115.824 126.134 115.739 125.926 115.739C125.718 115.739 125.549 115.824 125.549 115.928C125.549 116.032 125.718 116.116 125.926 116.116Z" fill="#E6E6E6"/>
<path d="M127.706 116.116C127.914 116.116 128.083 116.032 128.083 115.928C128.083 115.824 127.914 115.739 127.706 115.739C127.498 115.739 127.329 115.824 127.329 115.928C127.329 116.032 127.498 116.116 127.706 116.116Z" fill="#E6E6E6"/>
<path d="M126.816 116.562C127.024 116.562 127.193 116.477 127.193 116.373C127.193 116.269 127.024 116.185 126.816 116.185C126.608 116.185 126.439 116.269 126.439 116.373C126.439 116.477 126.608 116.562 126.816 116.562Z" fill="#E6E6E6"/>
<path d="M123.255 116.562C123.463 116.562 123.632 116.477 123.632 116.373C123.632 116.269 123.463 116.185 123.255 116.185C123.047 116.185 122.878 116.269 122.878 116.373C122.878 116.477 123.047 116.562 123.255 116.562Z" fill="#E6E6E6"/>
<path d="M124.145 116.116C124.354 116.116 124.522 116.032 124.522 115.928C124.522 115.824 124.354 115.739 124.145 115.739C123.937 115.739 123.768 115.824 123.768 115.928C123.768 116.032 123.937 116.116 124.145 116.116Z" fill="#E6E6E6"/>
<path d="M125.036 116.784C125.244 116.784 125.413 116.7 125.413 116.596C125.413 116.492 125.244 116.407 125.036 116.407C124.827 116.407 124.659 116.492 124.659 116.596C124.659 116.7 124.827 116.784 125.036 116.784Z" fill="#E6E6E6"/>
</g>
<defs>
<clipPath id="clip0_2_127">
<rect width="137" height="142.059" fill="white"/>
</clipPath>
</defs>
</svg>
