<svg width="30" height="30" viewBox="0 0 30 30" fill="none" xmlns="http://www.w3.org/2000/svg">
<path d="M16.7412 9.3476H6.21191V11.3041H16.7412V9.3476Z" fill="#E84317"/>
<path d="M16.7412 4.67413H6.21191V6.63063H16.7412V4.67413Z" fill="#E84317"/>
<path d="M28.4834 14.8487C27.6759 13.8242 26.5849 13.2118 25.3069 13.0398C25.9294 11.6867 25.852 10.2503 25.8471 10.1712L25.7939 9.30824L24.931 9.25504C24.8692 9.25106 23.9826 9.20313 22.9537 9.47699V6.10352e-05H0V30H16.7415V29.9324C17.0185 29.9769 17.2999 30 17.5851 30C18.8654 30 19.4568 29.7813 19.953 29.5573C20.1446 29.4708 20.161 29.4675 20.2324 29.4675C20.3037 29.4675 20.3202 29.4708 20.5118 29.5573C21.0078 29.7813 21.5993 30 22.8796 30C25.2598 30 27.3876 28.4278 28.7174 25.6864C29.5444 23.9816 29.9999 21.9678 29.9999 20.0161C30.0001 17.9247 29.4615 16.0895 28.4834 14.8487ZM22.2173 12.0186C22.6377 11.5982 23.2665 11.3856 23.8169 11.2851C23.7164 11.836 23.5038 12.4646 23.0836 12.8849C22.8536 13.1149 22.5611 13.2823 22.2533 13.4035C22.2413 13.4082 22.2294 13.413 22.2174 13.4177C21.9731 13.5108 21.7203 13.5753 21.4822 13.6187C21.5757 13.0884 21.7792 12.4568 22.2173 12.0186ZM1.9565 28.0434V1.95656H20.9971V10.4819C20.9418 10.5312 20.8871 10.5818 20.8339 10.635C20.6219 10.8471 20.443 11.0779 20.2905 11.318C20.19 11.0594 20.0979 10.8402 20.0255 10.6746L18.2329 11.4586C18.5212 12.1176 18.8202 12.9507 19.0198 13.7721C18.5499 13.5287 18.0024 13.2882 17.4037 13.1569C15.6028 12.7619 14.009 13.0697 12.8044 14.0217H6.21221V15.9782H11.2884C10.9121 16.7669 10.6588 17.6877 10.5413 18.6956H6.21221V20.6521H10.4818C10.5273 21.5659 10.6694 22.4839 10.9003 23.3695H6.21221V25.326H11.5806C11.6345 25.4474 11.6898 25.5678 11.7473 25.6863C12.1954 26.6101 12.7345 27.4005 13.343 28.0434H1.9565ZM26.9571 24.8325C26.3754 26.0317 25.0721 28.0435 22.8796 28.0435C21.9134 28.0435 21.5964 27.9004 21.3169 27.7741C21.0572 27.6569 20.734 27.511 20.2323 27.511C19.7306 27.511 19.4074 27.6569 19.1478 27.7741C18.8681 27.9004 18.5513 28.0435 17.5849 28.0435C15.3925 28.0435 14.0893 26.0317 13.5076 24.8325C12.0572 21.8425 12.0618 17.9072 13.5178 16.0599C14.2991 15.0687 15.4656 14.735 16.9845 15.0681C17.6052 15.2042 18.1975 15.5423 18.7201 15.8406C19.2884 16.165 19.7373 16.4212 20.2323 16.4212C20.7273 16.4212 21.1762 16.165 21.7445 15.8406C22.2672 15.5423 22.8596 15.2042 23.4801 15.0681C24.9992 14.7349 26.1655 15.0686 26.9467 16.0599C28.4029 17.9072 28.4075 21.8425 26.9571 24.8325Z" fill="#E84317"/>
</svg>
