<svg width="30" height="30" viewBox="0 0 30 30" fill="none" xmlns="http://www.w3.org/2000/svg">
<path d="M19.7798 28.5629V19.4671L25.4991 19.4464C25.5136 19.4464 25.5277 19.4448 25.5419 19.4441C25.5557 19.4433 25.5697 19.4433 25.5834 19.4419C25.5986 19.4403 25.6133 19.4374 25.6282 19.435C25.641 19.433 25.654 19.4316 25.6666 19.4291C25.6819 19.4259 25.6966 19.4214 25.7117 19.4175C25.7234 19.4143 25.7355 19.4119 25.747 19.4083C25.762 19.4036 25.7765 19.3976 25.7912 19.3921C25.8021 19.388 25.8134 19.3845 25.8241 19.3799C25.8388 19.3736 25.8529 19.3662 25.8672 19.3591C25.8772 19.3541 25.8875 19.3498 25.8973 19.3444C25.9116 19.3367 25.9251 19.3278 25.9389 19.3193C25.948 19.3135 25.9575 19.3083 25.9665 19.3023C25.9797 19.2933 25.9922 19.2832 26.0049 19.2735C26.0136 19.2669 26.0226 19.2608 26.031 19.2538C26.0431 19.2439 26.0543 19.2329 26.0657 19.2223C26.074 19.2147 26.0826 19.2075 26.0906 19.1995C26.1013 19.1888 26.111 19.1771 26.1212 19.1659C26.129 19.1571 26.1373 19.1488 26.1448 19.1397C26.1544 19.1281 26.1629 19.1157 26.1718 19.1035C26.1788 19.094 26.1864 19.0849 26.193 19.0751C26.2015 19.0625 26.209 19.049 26.2168 19.036C26.2229 19.0259 26.2294 19.0162 26.235 19.0058C26.2422 18.9925 26.2482 18.9787 26.2546 18.9651C26.2598 18.9541 26.2655 18.9434 26.2703 18.9322C26.2761 18.9183 26.2808 18.9038 26.2859 18.8895C26.2901 18.878 26.2948 18.8668 26.2984 18.8551C26.303 18.8403 26.3063 18.825 26.3101 18.8099C26.313 18.7982 26.3166 18.7866 26.3191 18.7746C26.3221 18.7597 26.3238 18.7443 26.3261 18.7291C26.3279 18.7164 26.3305 18.704 26.3317 18.6912C26.3332 18.6763 26.3333 18.6611 26.3339 18.6461C26.3346 18.6329 26.3359 18.62 26.3359 18.6068V9.18916C26.3359 9.18393 26.3352 9.17889 26.3351 9.17367C26.3348 9.15594 26.3339 9.13821 26.3324 9.12039C26.3316 9.10985 26.3306 9.0994 26.3293 9.08895C26.3274 9.07253 26.3248 9.0561 26.3218 9.03968C26.3197 9.0283 26.3177 9.01701 26.3151 9.00581C26.3118 8.99088 26.3079 8.97624 26.3038 8.96149C26.3003 8.94918 26.2968 8.93696 26.2928 8.92483C26.2884 8.91167 26.2835 8.89879 26.2785 8.88582C26.2733 8.87258 26.2681 8.85951 26.2623 8.84664C26.2572 8.83516 26.2516 8.82387 26.2459 8.81249C26.2389 8.79858 26.2316 8.78496 26.224 8.77143C26.2183 8.76154 26.2122 8.75175 26.2061 8.74195C26.1971 8.72767 26.1877 8.71377 26.1779 8.70015C26.1746 8.69558 26.1719 8.69073 26.1685 8.68615C26.1651 8.68168 26.1614 8.67785 26.1579 8.67346C26.1478 8.6604 26.1373 8.6479 26.1264 8.63549C26.1184 8.62644 26.1103 8.61748 26.102 8.60871C26.0919 8.59807 26.0813 8.5879 26.0706 8.57773C26.0609 8.56868 26.0513 8.55963 26.0412 8.55105C26.0308 8.54209 26.02 8.5337 26.0091 8.5253C25.9984 8.51699 25.9877 8.50869 25.9766 8.50095C25.9651 8.49292 25.9532 8.48536 25.9413 8.4779C25.9305 8.47118 25.9198 8.46437 25.9088 8.45821C25.8953 8.45047 25.8813 8.44356 25.8673 8.43666C25.8575 8.43181 25.8478 8.42696 25.8379 8.42248C25.8221 8.41548 25.8061 8.40923 25.7898 8.40316C25.781 8.3999 25.7722 8.39645 25.7633 8.39346C25.7465 8.38777 25.7293 8.38292 25.7119 8.37834C25.7029 8.37592 25.6939 8.37349 25.6849 8.37135C25.6681 8.36743 25.6511 8.36435 25.634 8.36155C25.6236 8.35978 25.6132 8.3581 25.6028 8.35679C25.5871 8.35483 25.5712 8.35334 25.5554 8.35231C25.5429 8.35138 25.5305 8.35073 25.518 8.35035C25.5106 8.35017 25.5035 8.34923 25.4961 8.34923C25.4886 8.34923 25.4813 8.35017 25.4737 8.35035C25.4606 8.35063 25.4475 8.35138 25.4344 8.35231C25.4194 8.35343 25.4047 8.35474 25.3899 8.35661C25.3778 8.3581 25.3658 8.36006 25.3537 8.36211C25.3382 8.36482 25.3227 8.36771 25.3074 8.37125C25.2966 8.37368 25.286 8.37657 25.2754 8.37946C25.259 8.38394 25.2428 8.3887 25.2269 8.39402C25.2176 8.39719 25.2084 8.40064 25.1991 8.40419C25.1822 8.41063 25.1655 8.41744 25.149 8.42481C25.141 8.42854 25.1331 8.43246 25.1251 8.43638C25.1077 8.44496 25.0906 8.45392 25.074 8.46372C25.0671 8.46773 25.0603 8.47193 25.0535 8.47622C25.0361 8.48704 25.0192 8.49843 25.0027 8.51037C24.9996 8.5127 24.9961 8.51457 24.9929 8.51699L17.4047 14.1981H15.6543C16.4635 13.2998 16.9569 12.1118 16.9569 10.8105C16.9569 10.3467 16.5809 9.97076 16.1171 9.97076H14.9639L15.4288 9.09408C15.6461 8.68429 15.4901 8.17606 15.0804 7.95876C14.6706 7.74155 14.1624 7.89755 13.9451 8.30715L13.0629 9.97067H7.6623C7.19849 9.97067 6.82257 10.3466 6.82257 10.8104C6.82257 12.1117 7.31605 13.2997 8.12518 14.198H5.10717L4.46608 7.42375H7.63795L7.61976 7.65459C7.58327 8.11691 7.92859 8.52129 8.39101 8.55777C8.85221 8.5935 9.25761 8.24884 9.29409 7.78652L9.38357 6.64998C9.40195 6.41654 9.32199 6.18598 9.1631 6.01402C9.0042 5.84207 8.78064 5.74428 8.54645 5.74428H3.54322C3.30669 5.74428 3.08127 5.84393 2.92209 6.01888C2.76291 6.19373 2.68491 6.42773 2.70721 6.66305L3.42024 14.198H0.845147C0.84328 14.198 0.841601 14.1977 0.839735 14.1977C0.375921 14.1977 0 14.5736 0 15.0374V28.2147C0 28.2749 0.00662458 28.3336 0.0187541 28.3904C0.00662458 28.4475 0 28.5061 0 28.5664C0 29.0302 0.375921 29.4061 0.839735 29.4061H6.08304C6.54685 29.4061 6.92278 29.0302 6.92278 28.5664C6.92278 28.1026 6.54685 27.7267 6.08304 27.7267H1.67947V15.8778H4.33826C4.33956 15.8778 4.34078 15.878 4.34208 15.878C4.3433 15.878 4.3446 15.8778 4.34591 15.8778H11.8863C11.8875 15.8778 11.8887 15.8779 11.8899 15.8779C11.8911 15.8779 11.8923 15.8778 11.8935 15.8778H17.6816C17.6826 15.8778 17.6837 15.878 17.6847 15.878C17.7114 15.878 17.738 15.8762 17.7646 15.8738C17.7698 15.8734 17.775 15.8725 17.7803 15.872C17.8011 15.8696 17.8219 15.8664 17.8425 15.8624C17.8489 15.8611 17.8554 15.86 17.8618 15.8585C17.8823 15.8541 17.9028 15.8488 17.923 15.8428C17.9277 15.8414 17.9324 15.8403 17.9371 15.8388C17.9619 15.831 17.9865 15.8221 18.0106 15.8119C18.0113 15.8116 18.0119 15.8112 18.0126 15.8109C18.0349 15.8014 18.0568 15.7908 18.0785 15.7792C18.0854 15.7756 18.0919 15.7715 18.0987 15.7676C18.1138 15.759 18.1289 15.7501 18.1436 15.7404C18.1513 15.7354 18.1588 15.73 18.1664 15.7248C18.1734 15.72 18.1804 15.7155 18.1874 15.7104L24.6564 10.8673V17.77L18.937 17.7907C18.4744 17.7924 18.1004 18.1679 18.1004 18.6305V27.7268H16.3163C15.8525 27.7268 15.4766 28.1027 15.4766 28.5665C15.4766 29.0303 15.8525 29.4062 16.3163 29.4062H18.9347C18.9366 29.4062 18.9383 29.4065 18.9401 29.4065C19.23 29.4065 19.4857 29.2596 19.6365 29.0361C19.7271 28.902 19.7801 28.7405 19.7801 28.5665C19.78 28.5653 19.7798 28.5642 19.7798 28.5629ZM8.60738 11.6505H13.5627C13.5642 11.6505 13.5658 11.6508 13.5673 11.6508C13.5687 11.6508 13.57 11.6505 13.5714 11.6505H15.1721C14.798 13.1123 13.4706 14.1964 11.8942 14.1984H11.8857C10.3091 14.1964 8.98153 13.1124 8.60738 11.6505ZM30 22.0995V28.5665C30 29.0303 29.6241 29.4062 29.1603 29.4062C28.6965 29.4062 28.3205 29.0303 28.3205 28.5665V22.9393H23.5838V28.5665C23.5838 29.0303 23.2078 29.4062 22.744 29.4062C22.2802 29.4062 21.9043 29.0303 21.9043 28.5665V22.0995C21.9043 21.6357 22.2802 21.2598 22.744 21.2598H28.3202V12.2471C28.3202 11.7833 28.6961 11.4074 29.1599 11.4074C29.6237 11.4074 29.9996 11.7833 29.9996 12.2471V22.0933C29.9997 22.0954 30 22.0975 30 22.0995ZM23.3515 7.59664C25.2824 7.59664 26.8532 6.02587 26.8532 4.09514C26.8532 2.1644 25.2824 0.593628 23.3515 0.593628C21.4208 0.593628 19.8501 2.1644 19.8501 4.09514C19.8501 6.02587 21.4208 7.59664 23.3515 7.59664ZM23.3515 2.273C24.3563 2.273 25.1738 3.09044 25.1738 4.09504C25.1738 5.09965 24.3563 5.91708 23.3515 5.91708C22.3468 5.91708 21.5296 5.09965 21.5296 4.09504C21.5296 3.09044 22.3468 2.273 23.3515 2.273Z" fill="#E84317"/>
</svg>
