<svg width="100%" height="100%" id="svg" viewBox="0 0 1440 600" xmlns="http://www.w3.org/2000/svg" class="transition duration-400 ease-in-out delay-150"><path d="M 0,600 C 0,600 0,150 0,150 C 64.73333333333332,129.85641025641024 129.46666666666664,109.7128205128205 217,118 C 304.53333333333336,126.2871794871795 414.8666666666667,163.00512820512822 512,177 C 609.1333333333333,190.99487179487178 693.0666666666666,182.26666666666668 750,173 C 806.9333333333334,163.73333333333332 836.8666666666666,153.92820512820512 920,164 C 1003.1333333333334,174.07179487179488 1139.4666666666667,204.0205128205128 1235,205 C 1330.5333333333333,205.9794871794872 1385.2666666666667,177.9897435897436 1440,150 C 1440,150 1440,600 1440,600 Z" stroke="none" stroke-width="0" fill="#dfc47f66" class="transition-all duration-300 ease-in-out delay-150 path-0"></path><path d="M 0,600 C 0,600 0,300 0,300 C 64.03333333333333,281.9102564102564 128.06666666666666,263.8205128205128 220,281 C 311.93333333333334,298.1794871794872 431.76666666666665,350.6282051282051 522,344 C 612.2333333333333,337.3717948717949 672.8666666666668,271.6666666666667 737,260 C 801.1333333333332,248.33333333333331 868.7666666666667,290.7051282051282 949,316 C 1029.2333333333333,341.2948717948718 1122.0666666666666,349.5128205128205 1206,344 C 1289.9333333333334,338.4871794871795 1364.9666666666667,319.2435897435897 1440,300 C 1440,300 1440,600 1440,600 Z" stroke="none" stroke-width="0" fill="#dfc47f88" class="transition-all duration-300 ease-in-out delay-150 path-1"></path><path d="M 0,600 C 0,600 0,450 0,450 C 78.38461538461539,465.73846153846154 156.76923076923077,481.4769230769231 229,481 C 301.2307692307692,480.5230769230769 367.3076923076924,463.83076923076925 450,449 C 532.6923076923076,434.16923076923075 632,421.19999999999993 720,424 C 808,426.80000000000007 884.6923076923076,445.3692307692308 970,459 C 1055.3076923076924,472.6307692307692 1149.2307692307693,481.32307692307694 1229,479 C 1308.7692307692307,476.67692307692306 1374.3846153846152,463.3384615384615 1440,450 C 1440,450 1440,600 1440,600 Z" stroke="none" stroke-width="0" fill="#dfc47fff" class="transition-all duration-300 ease-in-out delay-150 path-2"></path></svg>