<svg xmlns="http://www.w3.org/2000/svg" version="1.1" xmlns:xlink="http://www.w3.org/1999/xlink" xmlns:svgjs="http://svgjs.com/svgjs" width="2600" height="560" preserveAspectRatio="none" viewBox="0 0 2600 560">
    <g mask="url(&quot;#SvgjsMask1116&quot;)" fill="none">
        <path d="M 0,168 C 86.8,147.2 260.4,63.6 434,64 C 607.6,64.4 694.4,180.8 868,170 C 1041.6,159.2 1128.4,16.8 1302,10 C 1475.6,3.2 1562.4,125.6 1736,136 C 1909.6,146.4 1997.2,55.8 2170,62 C 2342.8,68.2 2514,146 2600,167L2600 560L0 560z" fill="rgba(196, 196, 196, 1)"></path>
        <path d="M 0,185 C 74.4,217 223.2,327.6 372,345 C 520.8,362.4 595.2,276.4 744,272 C 892.8,267.6 967.2,330.2 1116,323 C 1264.8,315.8 1339.2,230.4 1488,236 C 1636.8,241.6 1711.2,345 1860,351 C 2008.8,357 2084,266.8 2232,266 C 2380,265.2 2526.4,330.8 2600,347L2600 560L0 560z" fill="rgba(207, 207, 207, 1)"></path>
        <path d="M 0,382 C 130,401.2 390,475.6 650,478 C 910,480.4 1040,395.2 1300,394 C 1560,392.8 1690,471 1950,472 C 2210,473 2470,413.6 2600,399L2600 560L0 560z" fill="rgba(213, 213, 213, 1)"></path>
    </g>
    <defs>
        <mask id="SvgjsMask1116">
            <rect width="2600" height="560" fill="#ffffff"></rect>
        </mask>
    </defs>
</svg>