<svg xmlns="http://www.w3.org/2000/svg" version="1.1" xmlns:xlink="http://www.w3.org/1999/xlink" xmlns:svgjs="http://svgjs.com/svgjs" width="2600" height="560" preserveAspectRatio="none" viewBox="0 0 2600 560">
    <g mask="url(&quot;#SvgjsMask1471&quot;)" fill="none">
        <path d="M 0,120 C 65,101.4 195,32.2 325,27 C 455,21.8 520,93.6 650,94 C 780,94.4 845,28.2 975,29 C 1105,29.8 1170,101.8 1300,98 C 1430,94.2 1495,-5.8 1625,10 C 1755,25.8 1820,168 1950,177 C 2080,186 2145,70.6 2275,55 C 2405,39.4 2535,90.2 2600,99L2600 560L0 560z" fill="rgba(97, 146, 98, 1)"></path>
        <path d="M 0,258 C 74.4,266.6 223.2,305.2 372,301 C 520.8,296.8 595.2,237 744,237 C 892.8,237 967.2,309.6 1116,301 C 1264.8,292.4 1339.2,190.4 1488,194 C 1636.8,197.6 1711.2,305.4 1860,319 C 2008.8,332.6 2084,256.4 2232,262 C 2380,267.6 2526.4,330 2600,347L2600 560L0 560z" fill="rgba(114, 173, 115, 1)"></path>
        <path d="M 0,375 C 74.4,403.8 223.2,512 372,519 C 520.8,526 595.2,418.2 744,410 C 892.8,401.8 967.2,482.8 1116,478 C 1264.8,473.2 1339.2,370.4 1488,386 C 1636.8,401.6 1711.2,549.6 1860,556 C 2008.8,562.4 2084,433.6 2232,418 C 2380,402.4 2526.4,466 2600,478L2600 560L0 560z" fill="rgba(124, 187, 126, 1)"></path>
    </g>
    <defs>
        <mask id="SvgjsMask1471">
            <rect width="2600" height="560" fill="#ffffff"></rect>
        </mask>
    </defs>
</svg>